<mxfile host="65bd71144e">
    <diagram id="HIP3nbAZw_EuaXWnEj3U" name="Page-1">
        <mxGraphModel dx="1853" dy="681" grid="1" gridSize="10" guides="1" tooltips="1" connect="1" arrows="1" fold="1" page="1" pageScale="1" pageWidth="850" pageHeight="1100" math="0" shadow="0">
            <root>
                <mxCell id="0"/>
                <mxCell id="1" parent="0"/>
                <mxCell id="7" value="http://ics2o.mths.ca" style="swimlane;whiteSpace=wrap;html=1;" parent="1" vertex="1">
                    <mxGeometry x="-820" y="70" width="767" height="480" as="geometry"/>
                </mxCell>
                <mxCell id="8" value="" style="shape=image;imageAspect=0;aspect=fixed;verticalLabelPosition=bottom;verticalAlign=top;image=data:image/svg+xml,PHN2ZyB4bWxuczp4bGluaz0iaHR0cDovL3d3dy53My5vcmcvMTk5OS94bGluayIgeG1sbnM9Imh0dHA6Ly93d3cudzMub3JnLzIwMDAvc3ZnIiBjbGFzcz0iZGlzcGxheWVkX2VxdWF0aW9uIiB2aWV3Qm94PSIwIDAgMjc1LjU1IDE5NS43MSIgaGVpZ2h0PSIyNjAuOTQ3IiB3aWR0aD0iMzY3LjQiPgogIDxkZWZzPgogICAgPGNsaXBQYXRoIGlkPSJzdmc1NjMxMzkxNzUzNTB0aWt6XzAwMDA4YiI+CiAgICAgIDxwYXRoIGQ9Ik0gMSAwLjQyNTc4MSBMIDggMC40MjU3ODEgTCA4IDYgTCAxIDYgWiBNIDEgMC40MjU3ODEiLz4KICAgIDwvY2xpcFBhdGg+CiAgICA8Y2xpcFBhdGggaWQ9InN2ZzU2MzEzOTE3NTM1MHRpa3pfMDAwMDhhIj4KICAgICAgPHBhdGggZD0iTTAgMEg5VjdIMHoiLz4KICAgIDwvY2xpcFBhdGg+CiAgICA8ZyBjbGlwLXBhdGg9InVybCgjc3ZnNTYzMTM5MTc1MzUwdGlrel8wMDAwOGEpIiBpZD0ic3ZnNTYzMTM5MTc1MzUwdGlrel8wMDAwOGMiPgogICAgICA8cGF0aCBkPSJNIDcuMDE1NjI1IDMuNDIxODc1IEwgMS41NDY4NzUgMS4zNTkzNzUgTCAzLjM1MTU2MyAzLjQyMTg3NSBMIDEuNTQ2ODc1IDUuNDg4MjgxIi8+CiAgICAgIDxnIGNsaXAtcGF0aD0idXJsKCNzdmc1NjMxMzkxNzUzNTB0aWt6XzAwMDA4YikiPgogICAgICAgIDxwYXRoIHN0cm9rZS1taXRlcmxpbWl0PSIxMCIgc3Ryb2tlPSIjMDAwIiBzdHJva2UtbGluZWpvaW49InJvdW5kIiBzdHJva2UtbGluZWNhcD0icm91bmQiIHN0cm9rZS13aWR0aD0iNy45NyIgZmlsbD0ibm9uZSIgdHJhbnNmb3JtPSJtYXRyaXgoLjEgMCAwIC0uMSAtMTE3IDkxLjcxKSIgZD0iTSAxMjQwLjE1NjI1IDg4Mi44ODEyNSBMIDExODUuNDY4NzUgOTAzLjUwNjI1IEwgMTIwMy41MTU2MjUgODgyLjg4MTI1IEwgMTE4NS40Njg3NSA4NjIuMjE3MTg3IFogTSAxMjQwLjE1NjI1IDg4Mi44ODEyNSIvPgogICAgICA8L2c+CiAgICA8L2c+CiAgPC9kZWZzPgogIDxwYXRoIHN0cm9rZS1taXRlcmxpbWl0PSIxMCIgc3Ryb2tlPSIjNTVhNGUwIiBzdHJva2UtbGluZWpvaW49InJvdW5kIiBzdHJva2UtbGluZWNhcD0icm91bmQiIHN0cm9rZS13aWR0aD0iNy45NyIgZmlsbD0ibm9uZSIgdHJhbnNmb3JtPSJtYXRyaXgoLjEgMCAwIC0uMSAwIDE5NS43MSkiIGQ9Ik0gMTEwMy4yODEyNSAxMjQuMDE0MDYyIEwgMTExNS4yMzQzNzUgMTg1LjE4NTkzNyBMIDExNzcuNjE3MTg4IDE4NS4xODU5MzcgTCAxMTY1LjY2NDA2MyAxMjMuOTc1IFogTSAxMTAzLjI4MTI1IDEyNC4wMTQwNjIiLz4KICA8cGF0aCBzdHJva2UtbWl0ZXJsaW1pdD0iMTAiIHN0cm9rZT0iIzAwMCIgc3Ryb2tlLWxpbmVqb2luPSJyb3VuZCIgc3Ryb2tlLWxpbmVjYXA9InJvdW5kIiBzdHJva2Utd2lkdGg9IjcuOTciIGZpbGw9Im5vbmUiIHRyYW5zZm9ybT0ibWF0cml4KC4xIDAgMCAtLjEgMCAxOTUuNzEpIiBkPSJNMTEwMy4yODEyNSAxMjQuMDE0MDYyTDEzOTkuNjg3NSAxNjQxLjcwOTM3NU0xMzk5LjY4NzUgMTY0MS43MDkzNzVMMjQ2Ni4wOTM3NSA3MTYuOTA0Njg3IDE4NzMuMjQyMTg4IDEyNC4wNTMxMjUgMzMzLjI4MTI1IDEyNC4wNTMxMjUgMTM5OS42ODc1IDE2NDEuNzA5Mzc1Ii8+CiAgPHBhdGggc3Ryb2tlLW1pdGVybGltaXQ9IjEwIiBzdHJva2UtZGFzaGFycmF5PSIyOS44ODgzLDI5Ljg4ODMiIHN0cm9rZT0iIzAwMCIgc3Ryb2tlLWxpbmVqb2luPSJyb3VuZCIgc3Ryb2tlLWxpbmVjYXA9InJvdW5kIiBzdHJva2Utd2lkdGg9IjcuOTciIGZpbGw9Im5vbmUiIHRyYW5zZm9ybT0ibWF0cml4KC4xIDAgMCAtLjEgMCAxOTUuNzEpIiBkPSJNMTM5OS42ODc1IDE2NDEuNzA5Mzc1TDkyNi4xNzE4NzUgNzE2LjkwNDY4NyAyNDY2LjA5Mzc1IDcxNi45MDQ2ODdNOTI2LjE3MTg3NSA3MTYuOTA0Njg3TDMzMy4yODEyNSAxMjQuMDUzMTI1Ii8+CiAgPHBhdGggc3Ryb2tlLW1pdGVybGltaXQ9IjEwIiBzdHJva2U9IiMwMDAiIHN0cm9rZS1saW5lam9pbj0icm91bmQiIHN0cm9rZS1saW5lY2FwPSJyb3VuZCIgc3Ryb2tlLXdpZHRoPSI3Ljk3IiBmaWxsPSJub25lIiB0cmFuc2Zvcm09Im1hdHJpeCguMSAwIDAgLS4xIDAgMTk1LjcxKSIgZD0iTTE4NzMuMjQyMTg4IDEyNC4wNTMxMjVMMTM5OS42ODc1IDE2NDEuNzA5Mzc1TTE1NTMuMzU5Mzc1IDE4MDkuNzE3MTg3TDI2MTAuNjY0MDYzIDg5Mi44MDMxMjUiLz4KICA8cGF0aCBzdHJva2UtbWl0ZXJsaW1pdD0iMTAiIHN0cm9rZT0iIzAwMCIgc3Ryb2tlLXdpZHRoPSI3Ljk5OCIgZmlsbD0ibm9uZSIgdHJhbnNmb3JtPSJtYXRyaXgoLjEgMCAwIC0uMSAwIDE5NS43MSkiIGQ9Ik0gMTUzMS41MjM0MzggMTc4Ny42MDc4MTIgTCAxNTcyLjE0ODQzOCAxODM0LjQ0Mzc1Ii8+CiAgPHBhdGggc3Ryb2tlLW1pdGVybGltaXQ9IjEwIiBzdHJva2U9IiMwMDAiIHN0cm9rZS13aWR0aD0iNy45OTkiIGZpbGw9Im5vbmUiIHRyYW5zZm9ybT0ibWF0cml4KC4xIDAgMCAtLjEgMCAxOTUuNzEpIiBkPSJNIDI2MzIuNDYwOTM4IDkxNC44NzM0MzcgTCAyNTkxLjg3NSA4NjguMDc2NTYyIi8+CiAgPHBhdGggZmlsbD0iI2ZmZiIgZD0iTSAyMjYuNjAxNTYzIDY2Ljc0NjA5NCBMIDE5OS40OTYwOTQgNDMuMjQyMTg4IEwgMTg5LjgwMDc4MSA1NC40MjE4NzUgTCAyMTYuOTA2MjUgNzcuOTI1NzgxIFogTSAyMjYuNjAxNTYzIDY2Ljc0NjA5NCIvPgogIDxwYXRoIGQ9Ik0xOTguODQzNzUgNTcuMTM2NzE5TDE5OS4wNTA3ODEgNTYuODk0NTMxQzE5OC4yNjE3MTkgNTYuMjIyNjU2IDE5OC4wNzgxMjUgNTUuNzkyOTY5IDE5OC40Mzc1IDU1LjM3NUwyMDIuNDI5Njg4IDUwLjcxODc1IDIwMi4xNzk2ODggNTAuNTA3ODEzIDIwMC4xMTcxODggNDkuNTU0Njg4IDE5OS44NzUgNDkuODM1OTM4QzIwMC4yMTQ4NDQgNDkuOTgwNDY5IDIwMC42OTUzMTMgNTAuMzAwNzgxIDIwMC44NjcxODggNTAuNDQ1MzEzIDIwMS4wNzgxMjUgNTAuNjMyODEzIDIwMS4wNDY4NzUgNTAuODA4NTk0IDIwMC43ODkwNjMgNTEuMTA5Mzc1TDE5Ny42ODc1IDU0LjczMDQ2OUMxOTcuMzIwMzEzIDU1LjE1NjI1IDE5Ni44OTQ1MzEgNTUuMDQ2ODc1IDE5Ni4wODk4NDQgNTQuMzU5Mzc1TDE5NS44ODI4MTMgNTQuNTk3NjU2IDE5OC44NDM3NSA1Ny4xMzY3MTlNMjA3Ljc2NTYyNSA1NS44ODY3MTlMMjA3Ljk5MjE4OCA1NS42MjEwOTQgMjA0LjcyMjY1NiA1Mi44MjAzMTMgMjAzLjI1NzgxMyA1My44MzU5MzggMjAzLjUwMzkwNiA1NC4wODk4NDRDMjA0LjIxMDkzOCA1My43MzA0NjkgMjA0LjM1MTU2MyA1My43MDMxMjUgMjA0LjgyODEyNSA1NC4xMTMyODFMMjA2LjczODI4MSA1NS43NSAyMDAuNjMyODEzIDU4Ljc4NTE1NiAyMDEuMzA4NTk0IDU5LjM2NzE4OCAyMDcuNzY1NjI1IDU1Ljg4NjcxOU0yMTAuMTc5Njg4IDY0LjczNDM3NUMyMDkuMzY3MTg4IDY0LjkwMjM0NCAyMDguODkwNjI1IDY0Ljg2NzE4OCAyMDguMzM1OTM4IDY0LjM5MDYyNSAyMDcuNDUzMTI1IDYzLjYzNjcxOSAyMDcuNjY0MDYzIDYyLjUzOTA2MyAyMDguNTYyNSA2MS40OTYwOTQgMjA5LjQwNjI1IDYwLjUxMTcxOSAyMTAuMjY1NjI1IDYwLjM1NTQ2OSAyMTAuOTU3MDMxIDYwLjk0OTIxOSAyMTEuNjk1MzEzIDYxLjU4MjAzMSAyMTAuNTc0MjE5IDYyLjMxNjQwNiAyMTEuMjA3MDMxIDYyLjg1OTM3NSAyMTEuNDQ1MzEzIDYzLjA2NjQwNiAyMTEuNjgzNTk0IDYzLjAzMTI1IDIxMS44OTg0MzggNjIuNzgxMjUgMjEyLjMyNDIxOSA2Mi4yODUxNTYgMjEyLjE3OTY4OCA2MS40NDkyMTkgMjExLjM3NSA2MC43NjE3MTkgMjEwLjE0MDYyNSA1OS43MDMxMjUgMjA4LjY5MTQwNiA1OS45NzI2NTYgMjA3LjUzOTA2MyA2MS4zMTY0MDYgMjA2LjUxOTUzMSA2Mi41MDc4MTMgMjA2LjQ1MzEyNSA2My44ODY3MTkgMjA3LjUxOTUzMSA2NC44MDQ2ODggMjA4LjQzNzUgNjUuNTg5ODQ0IDIwOS4zMjAzMTMgNjUuNDEwMTU2IDIxMC4yMzgyODEgNjQuOTk2MDk0TDIxMC4xNzk2ODggNjQuNzM0Mzc1TTIxMy42MDE1NjMgNjQuNjEzMjgxQzIxNC4wNDY4NzUgNjQuNTkzNzUgMjE0LjY5NTMxMyA2NC41OTc2NTYgMjE1LjE0MDYyNSA2NC45ODA0NjkgMjE1LjUzNTE1NiA2NS4zMTY0MDYgMjE1LjY2NDA2MyA2NS43NTc4MTMgMjE1LjAzOTA2MyA2Ni40ODQzNzVMMjEzLjU4OTg0NCA2OC4xNzk2ODhDMjEzLjA3NDIxOSA2OC43NzczNDQgMjEyLjg5ODQzOCA2OC44Nzg5MDYgMjEyLjI4OTA2MyA2OC4zNTU0NjlMMjEyLjA3ODEyNSA2OC42MDU0NjkgMjE0LjEwOTM3NSA3MC4zNDM3NSAyMTQuMzIwMzEzIDcwLjA5NzY1NkMyMTMuNzAzMTI1IDY5LjU2NjQwNiAyMTMuNzkyOTY5IDY5LjM3ODkwNiAyMTQuMzAwNzgxIDY4Ljc4OTA2M0wyMTYuMDgyMDMxIDY2LjcwNzAzMUMyMTYuNTcwMzEzIDY2LjcxMDkzOCAyMTcuMTcxODc1IDY2LjcxODc1IDIxNy41MjM0MzggNjcuMDE5NTMxIDIxNy45MjE4NzUgNjcuMzYzMjgxIDIxOC4wOTM3NSA2Ny44Mzk4NDQgMjE3LjQyOTY4OCA2OC42MTcxODhMMjE2LjAxOTUzMSA3MC4yNjE3MTlDMjE1LjU3MDMxMyA3MC43ODEyNSAyMTUuMzU1NDY5IDcwLjk4NDM3NSAyMTQuNzczNDM4IDcwLjQ4NDM3NUwyMTQuNTYyNSA3MC43MzQzNzUgMjE2LjQ5NjA5NCA3Mi4zOTA2MjUgMjE2LjcwNzAzMSA3Mi4xNDQ1MzFDMjE2LjExNzE4OCA3MS42MzY3MTkgMjE2LjI2NTYyNSA3MS40MTAxNTYgMjE2LjczMDQ2OSA3MC44NzEwOTRMMjE4LjIyNjU2MyA2OS4xMjVDMjE5LjExMzI4MSA2OC4wODk4NDQgMjE5IDY3LjMzOTg0NCAyMTguMzMyMDMxIDY2Ljc2NTYyNSAyMTcuODc4OTA2IDY2LjM3ODkwNiAyMTcuMjMwNDY5IDY2LjI1IDIxNi4zNjMyODEgNjYuMzA4NTk0TDIxNi4zMjgxMjUgNjYuMjgxMjVDMjE2LjUwNzgxMyA2NS43MjI2NTYgMjE2LjQ3NjU2MyA2NS4xNzU3ODEgMjE1Ljk4ODI4MSA2NC43NTc4MTMgMjE1LjQwNjI1IDY0LjI1NzgxMyAyMTQuNzQyMTg4IDY0LjIzODI4MSAyMTMuOTMzNTk0IDY0LjI0MjE4OEwyMTMuODk4NDM4IDY0LjIxNDg0NCAyMTQuNDkyMTg4IDYzLjUxOTUzMSAyMTQuMjg5MDYzIDYzLjM0Mzc1IDIxMy4wMDc4MTMgNjIuNjc1NzgxIDIxMi43OTI5NjkgNjIuOTI1NzgxQzIxMi43OTI5NjkgNjIuOTI1NzgxIDIxMi45MTAxNTYgNjIuOTkyMTg4IDIxMy4wMzkwNjMgNjMuMTA1NDY5IDIxMy4yNzczNDQgNjMuMzA4NTk0IDIxMy4zMzIwMzEgNjMuNDg4MjgxIDIxMy4wNzAzMTMgNjMuNzk2ODc1TDIxMS4wMTU2MjUgNjYuMTk1MzEzQzIxMC41NzQyMTkgNjYuNzA3MDMxIDIxMC40MjU3ODEgNjYuNzU3ODEzIDIwOS44ODY3MTkgNjYuMjk2ODc1TDIwOS42NzE4NzUgNjYuNTQyOTY5IDIxMS42MjUgNjguMjE4NzUgMjExLjgzOTg0NCA2Ny45Njg3NUMyMTEuMzA4NTk0IDY3LjUxNTYyNSAyMTEuMjgxMjUgNjcuMzE2NDA2IDIxMS42OTUzMTMgNjYuODM5ODQ0TDIxMy42MDE1NjMgNjQuNjEzMjgxIi8+CiAgPHBhdGggc3Ryb2tlLW1pdGVybGltaXQ9IjEwIiBzdHJva2U9IiMwMDAiIHN0cm9rZS1saW5lam9pbj0icm91bmQiIHN0cm9rZS1saW5lY2FwPSJyb3VuZCIgc3Ryb2tlLXdpZHRoPSI3Ljk3IiBmaWxsPSJub25lIiB0cmFuc2Zvcm09Im1hdHJpeCguMSAwIDAgLS4xIDAgMTk1LjcxKSIgZD0iTSAxMjAxLjUyMzQzOCA4ODIuODgxMjUgTCA0ODEuNDg0Mzc1IDg4Mi45MjAzMTIiLz4KICA8dXNlIHRyYW5zZm9ybT0idHJhbnNsYXRlKDExNyAxMDQpIiB4bGluazpocmVmPSIjc3ZnNTYzMTM5MTc1MzUwdGlrel8wMDAwOGMiLz4KICA8cGF0aCBkPSJNMjAuNDUzMTI1IDExMC45MTAxNTZMMjAuNDUzMTI1IDExMC41OTc2NTZDMTkuNDI1NzgxIDExMC41OTc2NTYgMTkuMDE1NjI1IDExMC4zOTg0MzggMTkuMDE1NjI1IDEwOS44NTE1NjNMMTkuMDE1NjI1IDEwMy43ODEyNSAxOC42OTE0MDYgMTAzLjc4MTI1IDE2LjUyMzQzOCAxMDQuMzk0NTMxIDE2LjUyMzQzOCAxMDQuNzYxNzE5QzE2Ljg3MTA5NCAxMDQuNjUyMzQ0IDE3LjQ0MTQwNiAxMDQuNTg1OTM4IDE3LjY2NDA2MyAxMDQuNTg1OTM4IDE3Ljk0MTQwNiAxMDQuNTg1OTM4IDE4LjAzMTI1IDEwNC43NDIxODggMTguMDMxMjUgMTA1LjEyODkwNkwxOC4wMzEyNSAxMDkuODUxNTYzQzE4LjAzMTI1IDExMC40MTAxNTYgMTcuNjQwNjI1IDExMC41OTc2NTYgMTYuNTkzNzUgMTEwLjU5NzY1NkwxNi41OTM3NSAxMTAuOTEwMTU2IDIwLjQ1MzEyNSAxMTAuOTEwMTU2TTI1Ljk1MzEyNSAxMDQuNzg1MTU2TDI2LjEzMjgxMyAxMDMuODgyODEzIDIzLjA3NDIxOSAxMDMuODgyODEzIDIyLjM4MjgxMyAxMDYuNzkyOTY5IDIyLjUxNTYyNSAxMDYuOTYwOTM4QzIyLjY3MTg3NSAxMDYuOTYwOTM4IDIyLjcyNjU2MyAxMDYuOTYwOTM4IDIzLjAxOTUzMSAxMDYuOTg0Mzc1IDI0LjU1ODU5NCAxMDcuMDYyNSAyNS40Mjk2ODggMTA3LjUxOTUzMSAyNS40Mjk2ODggMTA4LjkxNDA2MyAyNS40Mjk2ODggMTEwLjA3NDIxOSAyNC43MjY1NjMgMTEwLjQ5NjA5NCAyMy45MzM1OTQgMTEwLjQ5NjA5NCAyMy4yMTg3NSAxMTAuNDk2MDk0IDIyLjg1MTU2MyAxMDkuOTQ5MjE5IDIyLjQwNjI1IDEwOS45NDkyMTkgMjIuMTI1IDEwOS45NDkyMTkgMjEuOTU3MDMxIDExMC4xNzU3ODEgMjEuOTU3MDMxIDExMC40Mjk2ODggMjEuOTU3MDMxIDExMC44NDM3NSAyMi4zODI4MTMgMTExLjA1NDY4OCAyMy4yNDIxODggMTExLjA1NDY4OCAyNS4wMTU2MjUgMTExLjA1NDY4OCAyNi4yNDIxODggMTEwLjE4MzU5NCAyNi4yNDIxODggMTA4LjQ2NDg0NCAyNi4yNDIxODggMTA2LjcxNDg0NCAyNC44NzEwOTQgMTA2LjE5MTQwNiAyMy41NTQ2ODggMTA2LjA4OTg0NEwyMy4wMzEyNSAxMDYuMDU4NTk0IDIzLjMyODEyNSAxMDQuNzg1MTU2IDI1Ljk1MzEyNSAxMDQuNzg1MTU2TTM0LjA1MDc4MSAxMDkuMjU3ODEzQzMzLjU1MDc4MSAxMDkuOTA2MjUgMzMuMTcxODc1IDExMC4xODM1OTQgMzIuNDQ1MzEzIDExMC4xODM1OTQgMzEuMjk2ODc1IDExMC4xODM1OTQgMzAuNzUgMTA5LjIyNjU2MyAzMC43NSAxMDcuODYzMjgxIDMwLjc1IDEwNi41ODIwMzEgMzEuMjk2ODc1IDEwNS45MTAxNTYgMzIuMTk5MjE5IDEwNS45MTAxNTYgMzMuMTYwMTU2IDEwNS45MTAxNTYgMzIuNzg5MDYzIDEwNy4xODM1OTQgMzMuNjE3MTg4IDEwNy4xODM1OTQgMzMuOTI5Njg4IDEwNy4xODM1OTQgMzQuMDg1OTM4IDEwNy4wMDM5MDYgMzQuMDg1OTM4IDEwNi42ODM1OTQgMzQuMDg1OTM4IDEwNi4wMzUxNTYgMzMuNDM3NSAxMDUuNSAzMi4zOTA2MjUgMTA1LjUgMzAuNzgxMjUgMTA1LjUgMjkuODY3MTg4IDEwNi42MzY3MTkgMjkuODY3MTg4IDEwOC4zODY3MTkgMjkuODY3MTg4IDEwOS45NDE0MDYgMzAuNzAzMTI1IDExMS4wMTk1MzEgMzIuMTAxNTYzIDExMS4wMTk1MzEgMzMuMjkyOTY5IDExMS4wMTk1MzEgMzMuODM5ODQ0IDExMC4zMjAzMTMgMzQuMjY1NjI1IDEwOS40MTQwNjNMMzQuMDUwNzgxIDEwOS4yNTc4MTNNMzYuNTYyNSAxMDYuOTI1NzgxQzM2Ljg4NjcxOSAxMDYuNjI1IDM3LjM3ODkwNiAxMDYuMjE0ODQ0IDM3Ljk1NzAzMSAxMDYuMjE0ODQ0IDM4LjQ3MjY1NiAxMDYuMjE0ODQ0IDM4Ljg1MTU2MyAxMDYuNDU3MDMxIDM4Ljg1MTU2MyAxMDcuNDA2MjVMMzguODUxNTYzIDEwOS42MTcxODhDMzguODUxNTYzIDExMC4zOTg0MzggMzguNzg1MTU2IDExMC41ODU5MzggMzcuOTkyMTg4IDExMC41ODU5MzhMMzcuOTkyMTg4IDExMC45MTAxNTYgNDAuNjM2NzE5IDExMC45MTAxNTYgNDAuNjM2NzE5IDExMC41ODU5MzhDMzkuODMyMDMxIDExMC41ODU5MzggMzkuNzc3MzQ0IDExMC4zODY3MTkgMzkuNzc3MzQ0IDEwOS42MTcxODhMMzkuNzc3MzQ0IDEwNi45MDYyNUM0MC4xNDQ1MzEgMTA2LjU5Mzc1IDQwLjYwMTU2MyAxMDYuMjE0ODQ0IDQxLjA1ODU5NCAxMDYuMjE0ODQ0IDQxLjU4NTkzOCAxMDYuMjE0ODQ0IDQyLjAxOTUzMSAxMDYuNDU3MDMxIDQyLjAxOTUzMSAxMDcuNDcyNjU2TDQyLjAxOTUzMSAxMDkuNjE3MTg4QzQyLjAxOTUzMSAxMTAuMjk2ODc1IDQxLjk4NDM3NSAxMTAuNTg1OTM4IDQxLjIyNjU2MyAxMTAuNTg1OTM4TDQxLjIyNjU2MyAxMTAuOTEwMTU2IDQzLjc1IDExMC45MTAxNTYgNDMuNzUgMTEwLjU4NTkzOEM0Mi45NzY1NjMgMTEwLjU4NTkzOCA0Mi45NDUzMTMgMTEwLjMyMDMxMyA0Mi45NDUzMTMgMTA5LjYxNzE4OEw0Mi45NDUzMTMgMTA3LjMzOTg0NEM0Mi45NDUzMTMgMTA1Ljk4ODI4MSA0Mi4zNzUgMTA1LjUgNDEuNTA3ODEzIDEwNS41IDQwLjkxNDA2MyAxMDUuNSA0MC4zNDM3NSAxMDUuODI0MjE5IDM5LjczNDM3NSAxMDYuNDI1NzgxTDM5LjY4NzUgMTA2LjQyNTc4MUMzOS40NjQ4NDQgMTA1Ljg5MDYyNSAzOS4wODU5MzggMTA1LjUgMzguNDQ5MjE5IDEwNS41IDM3LjY5MTQwNiAxMDUuNSAzNy4xNzk2ODggMTA1LjkxMDE1NiAzNi41NzQyMTkgMTA2LjQzNzVMMzYuNTMxMjUgMTA2LjQzNzUgMzYuNTMxMjUgMTA1LjUzMTI1IDM2LjI2MTcxOSAxMDUuNTMxMjUgMzQuODY3MTg4IDEwNS44NTU0NjkgMzQuODY3MTg4IDEwNi4xNzk2ODhDMzQuODY3MTg4IDEwNi4xNzk2ODggMzUgMTA2LjE1NjI1IDM1LjE2Nzk2OSAxMDYuMTU2MjUgMzUuNDgwNDY5IDEwNi4xNTYyNSAzNS42MzY3MTkgMTA2LjI1NzgxMyAzNS42MzY3MTkgMTA2LjY2MDE1NkwzNS42MzY3MTkgMTA5Ljc4NTE1NkMzNS42MzY3MTkgMTEwLjQ1MzEyNSAzNS41NTg1OTQgMTEwLjU4NTkzOCAzNC44NTU0NjkgMTEwLjU4NTkzOEwzNC44NTU0NjkgMTEwLjkxMDE1NiAzNy4zOTg0MzggMTEwLjkxMDE1NiAzNy4zOTg0MzggMTEwLjU4NTkzOEMzNi43MTA5MzggMTEwLjU4NTkzOCAzNi41NjI1IDExMC40NTMxMjUgMzYuNTYyNSAxMDkuODI4MTI1TDM2LjU2MjUgMTA2LjkyNTc4MSIvPgo8L3N2Zz4=;" vertex="1" parent="7">
                    <mxGeometry x="430" y="40" width="307" height="218.33" as="geometry"/>
                </mxCell>
                <mxCell id="10" value="&lt;span style=&quot;font-family: Helvetica, Arial, sans-serif; font-size: 17.5px; text-align: start;&quot;&gt;V = (L x W x H) / 3&lt;/span&gt;" style="text;html=1;align=center;verticalAlign=middle;resizable=0;points=[];autosize=1;strokeColor=none;fillColor=none;fontSize=16;" vertex="1" parent="7">
                    <mxGeometry x="20" y="100" width="170" height="30" as="geometry"/>
                </mxCell>
                <mxCell id="11" value="&lt;span style=&quot;font-family: Helvetica, Arial, sans-serif; font-size: 17.5px; text-align: start;&quot;&gt;&lt;font color=&quot;#000000&quot;&gt;Please enter integers for dimensions:&lt;/font&gt;&lt;/span&gt;" style="text;html=1;align=center;verticalAlign=middle;resizable=0;points=[];autosize=1;strokeColor=none;fillColor=none;fontSize=16;fontColor=#FFFFFF;" vertex="1" parent="7">
                    <mxGeometry x="20" y="150" width="310" height="30" as="geometry"/>
                </mxCell>
                <mxCell id="12" value="" style="rounded=1;whiteSpace=wrap;html=1;labelBackgroundColor=none;fontSize=16;fontColor=#000000;" vertex="1" parent="7">
                    <mxGeometry x="115" y="214.99999999999997" width="120" height="20" as="geometry"/>
                </mxCell>
                <mxCell id="13" value="" style="rounded=1;whiteSpace=wrap;html=1;labelBackgroundColor=none;fontSize=16;fontColor=#000000;" vertex="1" parent="7">
                    <mxGeometry x="115" y="266.67" width="120" height="20" as="geometry"/>
                </mxCell>
                <mxCell id="14" value="" style="rounded=1;whiteSpace=wrap;html=1;labelBackgroundColor=none;fontSize=16;fontColor=#000000;" vertex="1" parent="7">
                    <mxGeometry x="115" y="316.67" width="120" height="20" as="geometry"/>
                </mxCell>
                <mxCell id="15" value="&lt;font&gt;Length:&lt;/font&gt;" style="text;html=1;align=center;verticalAlign=middle;resizable=0;points=[];autosize=1;strokeColor=none;fillColor=none;fontSize=16;fontColor=#000000;" vertex="1" parent="7">
                    <mxGeometry x="40" y="209.99999999999997" width="80" height="30" as="geometry"/>
                </mxCell>
                <mxCell id="17" value="&lt;font&gt;Width:&lt;/font&gt;" style="text;html=1;align=center;verticalAlign=middle;resizable=0;points=[];autosize=1;strokeColor=none;fillColor=none;fontSize=16;fontColor=#000000;" vertex="1" parent="7">
                    <mxGeometry x="45" y="266.67" width="70" height="30" as="geometry"/>
                </mxCell>
                <mxCell id="18" value="&lt;font&gt;Height:&lt;/font&gt;" style="text;html=1;align=center;verticalAlign=middle;resizable=0;points=[];autosize=1;strokeColor=none;fillColor=none;fontSize=16;fontColor=#000000;" vertex="1" parent="7">
                    <mxGeometry x="45" y="316.67" width="70" height="30" as="geometry"/>
                </mxCell>
                <mxCell id="20" value="mm" style="text;html=1;align=center;verticalAlign=middle;resizable=0;points=[];autosize=1;strokeColor=none;fillColor=none;fontSize=16;fontColor=#000000;labelBackgroundColor=none;" vertex="1" parent="7">
                    <mxGeometry x="240" y="261.67" width="50" height="30" as="geometry"/>
                </mxCell>
                <mxCell id="19" value="mm" style="text;html=1;align=center;verticalAlign=middle;resizable=0;points=[];autosize=1;strokeColor=none;fillColor=none;fontSize=16;fontColor=#000000;labelBackgroundColor=none;" vertex="1" parent="7">
                    <mxGeometry x="240" y="209.99999999999997" width="50" height="30" as="geometry"/>
                </mxCell>
                <mxCell id="21" value="mm" style="text;html=1;align=center;verticalAlign=middle;resizable=0;points=[];autosize=1;strokeColor=none;fillColor=none;fontSize=16;fontColor=#000000;labelBackgroundColor=none;" vertex="1" parent="7">
                    <mxGeometry x="240" y="311.67" width="50" height="30" as="geometry"/>
                </mxCell>
                <mxCell id="9" value="&lt;span style=&quot;font-size: 16px;&quot;&gt;Formulas&lt;/span&gt;" style="text;html=1;align=center;verticalAlign=middle;resizable=0;points=[];autosize=1;strokeColor=none;fillColor=none;" vertex="1" parent="7">
                    <mxGeometry x="40" y="55" width="90" height="30" as="geometry"/>
                </mxCell>
                <mxCell id="23" value="&lt;font color=&quot;#000000&quot;&gt;Volume is: 90&amp;nbsp;&lt;span style=&quot;font-family: Helvetica, Arial, sans-serif; font-size: 17.5px; text-align: start;&quot;&gt;mm³&lt;/span&gt;&lt;/font&gt;" style="text;html=1;align=center;verticalAlign=middle;resizable=0;points=[];autosize=1;strokeColor=none;fillColor=none;fontSize=16;fontColor=#FFFFFF;" vertex="1" parent="7">
                    <mxGeometry x="60" y="425" width="160" height="30" as="geometry"/>
                </mxCell>
                <mxCell id="24" value="Calculate" style="rounded=1;whiteSpace=wrap;html=1;labelBackgroundColor=none;fontSize=16;fontColor=#000000;" vertex="1" parent="7">
                    <mxGeometry x="70" y="380" width="120" height="30" as="geometry"/>
                </mxCell>
            </root>
        </mxGraphModel>
    </diagram>
</mxfile>